<svg width="88" height="88" viewBox="0 0 88 88" fill="none" xmlns="http://www.w3.org/2000/svg">
  <rect x="2" y="2" width="84" height="84" rx="18" fill="#C0202E"/>
  <g fill="#ffffff">
    <path d="M44 20c-9 0-16 4-19 11-6-3-11-2-14 2-3 5-1 11 4 14-1 3-1 6 0 9 2 5 7 8 12 8h34c5 0 10-3 12-8 1-3 1-6 0-9 5-3 7-9 4-14-3-4-8-5-14-2-3-7-10-11-19-11z"/>
  </g>
  <g fill="#F2C14E">
    <path d="M25 33c-5-2-9-1-11 2-2 3-1 7 2 9 1-4 4-7 9-8 1-1 1-2 0-3z"/>
    <path d="M63 33c5-2 9-1 11 2 2 3 1 7-2 9-1-4-4-7-9-8-1-1-1-2 0-3z"/>
  </g>
  <g fill="#C0202E">
    <circle cx="36" cy="44" r="3.2"/>
    <circle cx="52" cy="44" r="3.2"/>
    <path d="M40 56c0-2 2-3 4-3s4 1 4 3-2 4-4 4-4-2-4-4z"/>
  </g>
</svg>
